<svg xmlns="http://www.w3.org/2000/svg" xmlns:xlink="http://www.w3.org/1999/xlink" width="1920" zoomAndPan="magnify" viewBox="0 0 1440 809.999993" height="1080" preserveAspectRatio="xMidYMid meet" version="1.0"><defs><g/><clipPath id="6be8063bf6"><path d="M 425.488281 55.953125 L 907.136719 55.953125 L 907.136719 281 L 425.488281 281 Z M 425.488281 55.953125 " clip-rule="nonzero"/></clipPath><clipPath id="483fdea873"><rect x="0" width="1351" y="0" height="360"/></clipPath></defs><g transform="matrix(1, 0, 0, 1, 52, 207)"><g clip-path="url(#483fdea873)"><g fill="#05668d" fill-opacity="1"><g transform="translate(901.739145, 285.150714)"><g><path d="M 47.21875 0 C 42.632812 0 38.828125 -1.507812 35.796875 -4.53125 C 32.773438 -7.550781 31.265625 -11.359375 31.265625 -15.953125 L 31.265625 -155.109375 C 31.265625 -159.910156 32.773438 -163.769531 35.796875 -166.6875 C 38.828125 -169.601562 42.632812 -171.0625 47.21875 -171.0625 C 52.019531 -171.0625 55.878906 -169.601562 58.796875 -166.6875 C 61.710938 -163.769531 63.171875 -159.910156 63.171875 -155.109375 L 63.171875 -15.953125 C 63.171875 -11.359375 61.710938 -7.550781 58.796875 -4.53125 C 55.878906 -1.507812 52.019531 0 47.21875 0 Z M 47.234375 -198.90625 C 41.597656 -198.90625 36.75 -200.9375 32.6875 -205 C 28.625 -209.0625 26.59375 -213.910156 26.59375 -219.546875 C 26.59375 -225.171875 28.625 -230.015625 32.6875 -234.078125 C 36.75 -238.148438 41.597656 -240.1875 47.234375 -240.1875 C 52.859375 -240.1875 57.703125 -238.148438 61.765625 -234.078125 C 65.835938 -230.015625 67.875 -225.171875 67.875 -219.546875 C 67.875 -213.910156 65.835938 -209.0625 61.765625 -205 C 57.703125 -200.9375 52.859375 -198.90625 47.234375 -198.90625 Z M 47.234375 -198.90625 "/></g></g></g><g fill="#05668d" fill-opacity="1"><g transform="translate(973.043538, 285.150714)"><g><path d="M 181.703125 -88.1875 C 181.703125 -84.226562 180.34375 -80.945312 177.625 -78.34375 C 174.914062 -75.738281 171.476562 -74.4375 167.3125 -74.4375 L 48.46875 -74.4375 C 50.757812 -59.84375 57.378906 -48.0625 68.328125 -39.09375 C 79.273438 -30.125 92.671875 -25.640625 108.515625 -25.640625 C 114.773438 -25.640625 121.289062 -26.785156 128.0625 -29.078125 C 134.84375 -31.378906 140.421875 -34.195312 144.796875 -37.53125 C 147.710938 -39.820312 151.148438 -40.96875 155.109375 -40.96875 C 159.078125 -40.96875 162.207031 -39.925781 164.5 -37.84375 C 168.25 -34.71875 170.125 -31.171875 170.125 -27.203125 C 170.125 -23.453125 168.457031 -20.328125 165.125 -17.828125 C 158.03125 -12.191406 149.21875 -7.601562 138.6875 -4.0625 C 128.164062 -0.519531 118.109375 1.25 108.515625 1.25 C 91.421875 1.25 76.097656 -2.445312 62.546875 -9.84375 C 48.992188 -17.25 38.410156 -27.519531 30.796875 -40.65625 C 23.191406 -53.789062 19.390625 -68.695312 19.390625 -85.375 C 19.390625 -102.050781 22.984375 -117.007812 30.171875 -130.25 C 37.367188 -143.488281 47.378906 -153.804688 60.203125 -161.203125 C 73.023438 -168.609375 87.566406 -172.3125 103.828125 -172.3125 C 119.878906 -172.3125 133.742188 -168.765625 145.421875 -161.671875 C 157.097656 -154.585938 166.0625 -144.6875 172.3125 -131.96875 C 178.570312 -119.25 181.703125 -104.65625 181.703125 -88.1875 Z M 103.828125 -145.421875 C 88.609375 -145.421875 76.253906 -141.25 66.765625 -132.90625 C 57.285156 -124.570312 51.289062 -113.421875 48.78125 -99.453125 L 152.921875 -99.453125 C 151.046875 -113.421875 145.832031 -124.570312 137.28125 -132.90625 C 128.738281 -141.25 117.585938 -145.421875 103.828125 -145.421875 Z M 103.828125 -145.421875 "/></g></g></g><g fill="#05668d" fill-opacity="1"><g transform="translate(1144.111882, 285.150714)"><g><path d="M 111.953125 -172.9375 C 123.003906 -172.9375 131.65625 -171.269531 137.90625 -167.9375 C 144.164062 -164.601562 147.296875 -160.429688 147.296875 -155.421875 C 147.296875 -153.960938 147.191406 -152.921875 146.984375 -152.296875 C 145.109375 -145.628906 140.9375 -142.296875 134.46875 -142.296875 C 133.425781 -142.296875 131.863281 -142.503906 129.78125 -142.921875 C 121.445312 -144.378906 114.671875 -145.109375 109.453125 -145.109375 C 94.441406 -145.109375 82.347656 -141.664062 73.171875 -134.78125 C 64.003906 -127.90625 59.421875 -118.628906 59.421875 -106.953125 L 59.421875 -15.640625 C 59.421875 -10.628906 58.113281 -6.769531 55.5 -4.0625 C 52.894531 -1.351562 48.988281 0 43.78125 0 C 38.78125 0 34.921875 -1.300781 32.203125 -3.90625 C 29.492188 -6.507812 28.140625 -10.421875 28.140625 -15.640625 L 28.140625 -155.421875 C 28.140625 -160.429688 29.492188 -164.289062 32.203125 -167 C 34.921875 -169.707031 38.78125 -171.0625 43.78125 -171.0625 C 54.207031 -171.0625 59.421875 -165.847656 59.421875 -155.421875 L 59.421875 -149.484375 C 65.671875 -156.785156 73.382812 -162.519531 82.5625 -166.6875 C 91.738281 -170.851562 101.535156 -172.9375 111.953125 -172.9375 Z M 111.953125 -172.9375 "/></g></g></g><g fill="#05668d" fill-opacity="1"><g transform="translate(22.470458, 274.958406)"><g><path d="M 120.40625 -172.3125 C 135.414062 -172.3125 149.019531 -168.554688 161.21875 -161.046875 C 173.414062 -153.546875 183.003906 -143.175781 189.984375 -129.9375 C 196.972656 -116.695312 200.46875 -101.945312 200.46875 -85.6875 C 200.46875 -69.425781 196.710938 -54.675781 189.203125 -41.4375 C 181.703125 -28.195312 171.332031 -17.769531 158.09375 -10.15625 C 144.851562 -2.550781 130.203125 1.25 114.140625 1.25 C 98.085938 1.25 83.546875 -2.550781 70.515625 -10.15625 C 57.484375 -17.769531 47.160156 -28.195312 39.546875 -41.4375 C 31.941406 -54.675781 28.140625 -69.425781 28.140625 -85.6875 L 28.140625 -228.296875 C 28.140625 -233.085938 29.648438 -236.941406 32.671875 -239.859375 C 35.703125 -242.785156 39.507812 -244.25 44.09375 -244.25 C 48.882812 -244.25 52.738281 -242.785156 55.65625 -239.859375 C 58.582031 -236.941406 60.046875 -233.085938 60.046875 -228.296875 L 60.046875 -143.859375 C 67.335938 -152.828125 76.195312 -159.8125 86.625 -164.8125 C 97.050781 -169.8125 108.3125 -172.3125 120.40625 -172.3125 Z M 114.140625 -26.890625 C 124.566406 -26.890625 134 -29.441406 142.4375 -34.546875 C 150.882812 -39.660156 157.554688 -46.695312 162.453125 -55.65625 C 167.359375 -64.625 169.8125 -74.632812 169.8125 -85.6875 C 169.8125 -96.738281 167.359375 -106.691406 162.453125 -115.546875 C 157.554688 -124.410156 150.882812 -131.394531 142.4375 -136.5 C 134 -141.613281 124.566406 -144.171875 114.140625 -144.171875 C 103.722656 -144.171875 94.289062 -141.613281 85.84375 -136.5 C 77.40625 -131.394531 70.785156 -124.410156 65.984375 -115.546875 C 61.191406 -106.691406 58.796875 -96.738281 58.796875 -85.6875 C 58.796875 -74.632812 61.191406 -64.625 65.984375 -55.65625 C 70.785156 -46.695312 77.40625 -39.660156 85.84375 -34.546875 C 94.289062 -29.441406 103.722656 -26.890625 114.140625 -26.890625 Z M 114.140625 -26.890625 "/></g></g></g><g fill="#05668d" fill-opacity="1"><g transform="translate(219.183496, 274.958406)"><g><path d="M 105.703125 -172.3125 C 121.753906 -172.3125 136.296875 -168.503906 149.328125 -160.890625 C 162.359375 -153.285156 172.675781 -142.863281 180.28125 -129.625 C 187.894531 -116.382812 191.703125 -101.632812 191.703125 -85.375 L 191.703125 -15.640625 C 191.703125 -11.046875 190.191406 -7.238281 187.171875 -4.21875 C 184.148438 -1.195312 180.34375 0.3125 175.75 0.3125 C 171.164062 0.3125 167.363281 -1.195312 164.34375 -4.21875 C 161.320312 -7.238281 159.8125 -11.046875 159.8125 -15.640625 L 159.8125 -27.203125 C 152.507812 -18.242188 143.644531 -11.257812 133.21875 -6.25 C 122.800781 -1.25 111.546875 1.25 99.453125 1.25 C 84.441406 1.25 70.835938 -2.5 58.640625 -10 C 46.441406 -17.507812 36.847656 -27.882812 29.859375 -41.125 C 22.878906 -54.363281 19.390625 -69.113281 19.390625 -85.375 C 19.390625 -101.632812 23.140625 -116.382812 30.640625 -129.625 C 38.148438 -142.863281 48.523438 -153.285156 61.765625 -160.890625 C 75.003906 -168.503906 89.648438 -172.3125 105.703125 -172.3125 Z M 105.703125 -26.890625 C 116.128906 -26.890625 125.5625 -29.441406 134 -34.546875 C 142.445312 -39.660156 149.066406 -46.644531 153.859375 -55.5 C 158.660156 -64.363281 161.0625 -74.320312 161.0625 -85.375 C 161.0625 -96.425781 158.660156 -106.429688 153.859375 -115.390625 C 149.066406 -124.359375 142.445312 -131.394531 134 -136.5 C 125.5625 -141.613281 116.128906 -144.171875 105.703125 -144.171875 C 95.273438 -144.171875 85.835938 -141.613281 77.390625 -136.5 C 68.953125 -131.394531 62.28125 -124.359375 57.375 -115.390625 C 52.476562 -106.429688 50.03125 -96.425781 50.03125 -85.375 C 50.03125 -74.320312 52.476562 -64.363281 57.375 -55.5 C 62.28125 -46.644531 68.953125 -39.660156 77.390625 -34.546875 C 85.835938 -29.441406 95.273438 -26.890625 105.703125 -26.890625 Z M 105.703125 -26.890625 "/></g></g></g><g clip-path="url(#6be8063bf6)"><path fill="#05668d" d="M 10.457031 24.308594 C 7.785156 25.425781 4.523438 28.335938 3.21875 30.773438 C 1.628906 33.746094 0.847656 73.40625 0.847656 151.269531 L 0.847656 267.328125 L 6.449219 272.925781 L 12.046875 278.527344 L 71.648438 277.839844 L 131.25 277.148438 L 146.167969 269.796875 C 191.398438 247.515625 200.980469 191.0625 165.996094 152.984375 L 160.371094 146.859375 L 166.234375 140.734375 C 169.460938 137.363281 174.078125 130.097656 176.492188 124.585938 C 192.546875 87.929688 176.304688 45.046875 140.046875 28.371094 C 129.457031 23.503906 126.113281 23.226562 72.117188 22.765625 C 40.882812 22.5 13.136719 23.191406 10.457031 24.308594 M 947.144531 32.066406 C 929.230469 42.082031 937.75 68.90625 958.84375 68.90625 C 965.820312 68.90625 976.347656 57.03125 976.347656 49.160156 C 976.347656 35.066406 959.460938 25.183594 947.144531 32.066406 M 36.984375 93.828125 L 37.597656 130.15625 L 79.914062 130.15625 C 126.980469 130.15625 131.660156 129.019531 141.503906 115.195312 C 148.597656 105.234375 148.664062 86.617188 141.644531 75.257812 C 132.765625 60.898438 125.632812 58.980469 78.1875 58.191406 L 36.371094 57.5 Z M 285.027344 95.617188 C 250.304688 106.707031 224.976562 138.117188 220.25 175.941406 C 213.984375 226.101562 254.566406 275.515625 305.539062 279.792969 C 324.667969 281.394531 340.554688 277.917969 358.621094 268.171875 L 372.300781 260.796875 L 373.617188 267.390625 C 375.183594 275.238281 385.816406 280.761719 394.835938 278.421875 C 405.96875 275.535156 408.417969 265.835938 408.371094 224.808594 C 408.351562 204.597656 407.339844 181.21875 406.132812 172.859375 C 397.726562 114.710938 340.175781 78.003906 285.027344 95.617188 M 518.773438 95.886719 C 490.941406 105.457031 472.398438 122.394531 459.171875 150.324219 L 451.847656 165.789062 L 451.144531 216.410156 L 450.433594 267.027344 L 456.050781 272.644531 C 462.875 279.464844 470.4375 279.808594 478.273438 273.644531 L 484.144531 269.03125 L 484.144531 227.28125 C 484.144531 195.386719 484.988281 182.679688 487.726562 173.457031 C 494.054688 152.144531 508.886719 136.160156 528.640625 129.359375 C 534.339844 127.394531 572.242188 126.714844 672.035156 126.78125 C 798.871094 126.867188 808.285156 127.136719 816.957031 130.976562 C 830.761719 137.082031 841.78125 147.847656 848.75 162.042969 C 854.824219 174.40625 854.992188 175.792969 856.078125 222.226562 C 857.171875 268.863281 857.289062 269.839844 862.449219 274.011719 C 869.300781 279.550781 876.3125 279.394531 883.761719 273.535156 L 889.773438 268.804688 L 889.074219 216.125 L 888.371094 163.445312 L 881.085938 148.660156 C 872.046875 130.304688 858.003906 114.53125 842.402344 105.191406 C 819.105469 91.25 818.117188 91.171875 667.972656 91.253906 C 536.910156 91.328125 531.550781 91.492188 518.773438 95.886719 M 945.222656 95.578125 C 942.800781 97.996094 940.257812 102.253906 939.5625 105.042969 C 938.867188 107.832031 938.589844 145.914062 938.949219 189.671875 C 939.589844 268.191406 939.664062 269.296875 944.484375 274.117188 C 950.988281 280.617188 961.453125 280.476562 968.570312 273.789062 L 974.117188 268.574219 L 974.117188 102.113281 L 968.652344 96.648438 C 961.929688 89.925781 951.355469 89.441406 945.222656 95.578125 M 1082.703125 93.59375 C 1056.6875 99.726562 1031.589844 120.292969 1019.605469 145.296875 C 988.210938 210.8125 1039.671875 284.796875 1113.199219 279.855469 C 1144.152344 277.777344 1161.199219 268.730469 1161.199219 254.386719 C 1161.199219 246.253906 1153.085938 235.945312 1146.679688 235.945312 C 1144.707031 235.945312 1137.898438 238.203125 1131.546875 240.957031 C 1115.929688 247.734375 1092.566406 247.78125 1079.910156 241.066406 C 1066.292969 233.839844 1049.84375 214.082031 1049.84375 204.964844 C 1049.84375 203.515625 1074.636719 202.488281 1119.765625 202.070312 C 1203.71875 201.296875 1200.195312 202.429688 1198.550781 176.679688 C 1196.828125 149.613281 1180.785156 122.417969 1157.410156 106.933594 C 1137.023438 93.429688 1106.511719 87.980469 1082.703125 93.59375 M 1301.191406 96.335938 C 1274.886719 105.304688 1254.917969 123.097656 1243.296875 147.929688 C 1234.265625 167.234375 1232.050781 184.519531 1232.878906 229.296875 L 1233.582031 267.523438 L 1239.832031 272.890625 C 1247.359375 279.363281 1254.65625 279.734375 1261.734375 274.011719 C 1266.898438 269.832031 1267.011719 268.910156 1268.125 221.113281 C 1269.230469 173.738281 1269.414062 172.175781 1275.21875 161.136719 C 1285.964844 140.699219 1304.277344 128.621094 1329.089844 125.597656 C 1344.570312 123.710938 1350.507812 118.90625 1350.507812 108.269531 C 1350.507812 91.132812 1330.597656 86.316406 1301.191406 96.339844 M 1084.566406 128.089844 C 1067.96875 134.171875 1053.925781 149.199219 1048.808594 166.347656 L 1047.3125 171.359375 L 1163.910156 171.359375 L 1162.421875 165.234375 C 1160.261719 156.359375 1151.382812 143.632812 1142.761719 137.0625 C 1127.03125 125.0625 1102.957031 121.351562 1084.566406 128.089844 M 290.378906 131.445312 C 278.085938 137 267.046875 147.296875 260.714844 159.109375 C 256.96875 166.089844 255.9375 171.867188 255.9375 185.835938 C 255.9375 199.800781 256.96875 205.578125 260.714844 212.558594 C 280.648438 249.734375 330.996094 256.113281 357.753906 224.851562 C 390.992188 186.019531 364.445312 126.914062 313.765625 126.914062 C 305.09375 126.914062 296.882812 128.503906 290.378906 131.445312 M 36.484375 204.765625 L 36.484375 242.625 L 78.242188 242.578125 C 125.4375 242.523438 133.792969 240.496094 143.605469 226.742188 C 147.949219 220.648438 148.953125 216.492188 148.953125 204.589844 C 148.953125 191.976562 148.089844 188.804688 142.714844 181.761719 C 131.976562 167.679688 128.691406 166.902344 80.023438 166.902344 L 36.484375 166.902344 Z M 36.484375 204.765625 " fill-opacity="1" fill-rule="evenodd"/></g></g></g></svg>
